#!OML:ASF I:\Actors\actors\Patient Classification 2\Patient 1\Session 1\actor1.ASF
:FULLY-SPECIFIED
:DEGREES
425
root -1.11897 18.0638 5.09245 -6.627 -2.6721 -3.81235
lowerback 6.34207 -1.50364 1.42041
upperback 3.31828 -1.94867 -2.67184
thorax -0.273812 -0.942239 -3.42334
lowerneck -7.77759 -9.9729 -20.0927
upperneck 26.3181 -11.7341 4.61121
head 11.4408 -6.87427 3.40636
rclavicle -2.21645e-014 3.18055e-015
rhumerus 37.3779 -0.450182 -84.4581
rradius 43.779
rwrist -31.9362
rhand -22.4416 -59.7857
rfingers 7.12502
rthumb 3.98233 -449.728
lclavicle -2.21645e-014 3.18055e-015
lhumerus 13.5004 -45.0104 97.4656
lradius 84.6761
lwrist 89.5673
lhand -43.7761 -50.5952
lfingers 7.12502
lthumb -16.6056 -21.2856
rfemur 14.1534 -3.33099 19.4229
rtibia -3.65764e-014
rfoot -15.144 -7.82589
rtoes 7.92642
lfemur 23.0147 -5.30433 -13.351
ltibia -19.2123
lfoot -1.00529 17.952
ltoes -12.5986
426
root -1.11857 18.0652 5.09811 -6.54576 -2.93734 -3.83569
lowerback 6.40755 -1.40713 1.57445
upperback 3.32939 -1.81254 -2.7765
thorax -0.296578 -0.871957 -3.62704
lowerneck -7.69992 -10.0617 -20.3183
upperneck 26.2025 -11.8244 4.59563
head 11.4134 -6.93393 3.42129
rclavicle 1.13804e-014 3.18055e-015
rhumerus 37.8573 -0.251598 -82.8563
rradius 43.6937
rwrist -32.067
rhand -22.2671 -59.3297
rfingers 7.12502
rthumb 4.15087 -449.269
lclavicle 1.13804e-014 3.18055e-015
lhumerus 11.9613 -47.6767 96.4205
lradius 88.4691
lwrist 87.5127
lhand -42.3333 -46.771
lfingers 7.12502
lthumb -15.2163 -17.3506
rfemur 14.0407 -3.07809 19.5031
rtibia 1.35174e-014
rfoot -15.1144 -7.89645
rtoes 7.44829
lfemur 22.9935 -5.36034 -13.3534
ltibia -19.1505
lfoot -1.22683 18.2353
ltoes -12.2157
427
root -1.11858 18.0683 5.10504 -6.42053 -3.2254 -3.85069
lowerback 6.46759 -1.27324 1.69734
upperback 3.3331 -1.62835 -2.88515
thorax -0.318154 -0.777975 -3.82119
lowerneck -7.59173 -10.1808 -20.6629
upperneck 26.0353 -12.014 4.83781
head 11.3995 -7.0219 3.53473
rclavicle -3.80176e-014 7.95139e-015
rhumerus 38.2897 -0.146587 -81.0363
rradius 43.7067
rwrist -32.0471
rhand -21.9023 -58.8691
rfingers 7.12502
rthumb 4.5031 -448.801
lclavicle -3.80176e-014 7.95139e-015
lhumerus 9.63445 -50.4606 96.2258
lradius 92.6353
lwrist 85.8609
lhand -41.0848 -44.9285
lfingers 7.12502
lthumb -14.0134 -15.4209
rfemur 13.8781 -2.80047 19.575
rtibia -4.85035e-014
rfoot -15.0863 -7.95575
rtoes 7.29651
lfemur 22.9389 -5.41623 -13.3658
ltibia -19.0944
lfoot -1.41003 18.56
ltoes -11.9709
428
root -1.1179 18.0725 5.11414 -6.2617 -3.52312 -3.84378
lowerback 6.50299 -1.11432 1.81087
upperback 3.3248 -1.41181 -3.01984
thorax -0.334565 -0.667797 -4.04026
lowerneck -7.42284 -10.3344 -21.0673
upperneck 25.8332 -12.2937 5.2165
head 11.3882 -7.14265 3.69525
rclavicle 6.90777e-015 -4.77083e-015
rhumerus 38.5357 -0.304012 -79.4152
rradius 43.7679
rwrist -31.4544
rhand -21.3789 -58.3472
rfingers 7.12502
rthumb 5.00854 -448.268
lclavicle 6.90777e-015 -4.77083e-015
lhumerus 6.85446 -53.3318 96.8013
lradius 97.0253
lwrist 85.4807
lhand -41.0753 -44.8773
lfingers 7.12502
lthumb -14.0042 -15.369
rfemur 13.6863 -2.50838 19.619
rtibia -1.90833e-014
rfoot -15.0892 -7.98102
rtoes 7.3732
lfemur 22.8583 -5.33298 -13.3719
ltibia -19.0514
lfoot -1.55232 18.7576
ltoes -11.6928
429
root -1.11712 18.0761 5.12384 -6.11336 -3.79505 -3.84369
lowerback 6.54105 -0.943031 1.92103
upperback 3.33038 -1.17876 -3.1645
thorax -0.334801 -0.54885 -4.26962
lowerneck -7.25115 -10.4984 -21.2707
upperneck 25.666 -12.5676 5.38298
head 11.3606 -7.26511 3.74805
rclavicle 5.56597e-015 -6.36111e-015
rhumerus 38.84 -0.485279 -77.615
rradius 43.6745
rwrist -30.7832
rhand -20.9297 -58.2402
rfingers 7.12502
rthumb 5.44222 -448.15
lclavicle 5.56597e-015 -6.36111e-015
lhumerus 4.02888 -56.0564 98.0006
lradius 101.266
lwrist 86.2164
lhand -40.9714 -44.406
lfingers 7.12502
lthumb -13.9041 -14.8909
rfemur 13.5208 -2.24304 19.6674
rtibia 1.35174e-014
rfoot -15.0748 -7.99086
rtoes 7.35208
lfemur 22.7873 -5.21703 -13.3605
ltibia -19.0187
lfoot -1.67973 18.915
ltoes -11.4636
430
root -1.11638 18.0772 5.1313 -6.01224 -4.01958 -3.84542
lowerback 6.6762 -0.807283 1.97435
upperback 3.32816 -0.995795 -3.29723
thorax -0.39846 -0.456837 -4.45016
lowerneck -7.1856 -10.6511 -21.3975
upperneck 25.6517 -12.783 5.41476
head 11.3896 -7.37084 3.74341
rclavicle -3.47873e-015 -3.49861e-014
rhumerus 39.0378 -0.495514 -75.6111
rradius 43.6388
rwrist -30.1536
rhand -20.4313 -58.1745
rfingers 7.12502
rthumb 5.92343 -448.072
lclavicle -3.47873e-015 -3.49861e-014
lhumerus 1.34046 -58.3848 99.6212
lradius 104.863
lwrist 87.2033
lhand -40.6161 -43.1221
lfingers 7.12502
lthumb -13.5616 -13.5837
rfemur 13.4075 -2.02415 19.7083
rtibia 4.77083e-015
rfoot -15.0566 -7.99401
rtoes 7.27084
lfemur 22.7441 -5.0822 -13.3457
ltibia -18.9916
lfoot -1.74413 19.0214
ltoes -11.4855
431
root -1.11502 18.0758 5.13637 -5.98353 -4.16284 -3.80983
lowerback 6.86281 -0.708472 1.94899
upperback 3.34482 -0.866269 -3.42972
thorax -0.474044 -0.392383 -4.58238
lowerneck -7.07457 -10.7813 -21.5844
upperneck 25.662 -12.945 5.3681
head 11.4125 -7.46748 3.72884
rclavicle -1.78906e-014 -2.70347e-014
rhumerus 39.0731 -0.402138 -73.5531
rradius 43.7683
rwrist -29.9199
rhand -19.9527 -58.1297
rfingers 7.12502
rthumb 6.38543 -448.013
lclavicle -1.78906e-014 -2.70347e-014
lhumerus -0.564333 -60.0757 101.072
lradius 107.245
lwrist 86.3595
lhand -40.0027 -40.0114
lfingers 7.12502
lthumb -12.9704 -10.4345
rfemur 13.3787 -1.8774 19.6868
rtibia 3.97569e-015
rfoot -15.0945 -7.96691
rtoes 7.41092
lfemur 22.7526 -4.9313 -13.3737
ltibia -18.986
lfoot -1.71687 19.0374
ltoes -11.7724
432
root -1.11413 18.0734 5.1385 -6.03753 -4.20651 -3.74406
lowerback 7.02719 -0.632348 1.8751
upperback 3.43015 -0.769386 -3.59039
thorax -0.468686 -0.34215 -4.71532
lowerneck -6.8213 -10.8882 -21.7693
upperneck 25.624 -13.1036 5.3116
head 11.3882 -7.56501 3.71854
rclavicle 8.94531e-016 1.27222e-014
rhumerus 39.1164 -0.506168 -71.9484
rradius 43.8652
rwrist -29.9105
rhand -19.5767 -58.181
rfingers 7.12502
rthumb 6.74844 -448.053
lclavicle 8.94531e-016 1.27222e-014
lhumerus -0.850004 -61.6276 101.372
lradius 108.955
lwrist 86.3918
lhand -39.1733 -39.6459
lfingers 7.12502
lthumb -12.1707 -10.02
rfemur 13.4445 -1.82335 19.6135
rtibia -4.53229e-014
rfoot -15.1198 -7.94186
rtoes 7.47233
lfemur 22.8422 -4.93277 -13.4665
ltibia -19.0165
lfoot -1.69141 19.1159
ltoes -11.9206
433
root -1.1154 18.0711 5.13572 -6.14113 -4.15622 -3.74024
lowerback 6.98762 -0.625023 1.70711
upperback 3.66869 -0.765967 -3.66864
thorax -0.19885 -0.33366 -4.70339
lowerneck -6.68813 -10.9924 -21.9701
upperneck 25.6507 -13.216 5.20846
head 11.4039 -7.64654 3.69421
rclavicle -1.17283e-014 9.54166e-015
rhumerus 39.4602 -0.758772 -71.0171
rradius 43.8346
rwrist -29.6996
rhand -19.3622 -58.2123
rfingers 7.12502
rthumb 6.95554 -448.078
lclavicle -1.17283e-014 9.54166e-015
lhumerus 1.31439 -62.2151 99.8411
lradius 108.847
lwrist 83.0465
lhand -38.1814 -38.9658
lfingers 7.12502
lthumb -11.2142 -9.28555
rfemur 13.5575 -1.87238 19.6017
rtibia -1.66979e-014
rfoot -15.0718 -7.9428
rtoes 7.2988
lfemur 22.9685 -4.97867 -13.4831
ltibia -19.0838
lfoot -1.64402 19.1449
ltoes -11.8697
434
root -1.11878 18.069 5.12822 -6.26448 -4.02763 -3.81809
lowerback 6.68762 -0.709453 1.39271
upperback 4.03612 -0.887401 -3.60896
thorax 0.340304 -0.386047 -4.45837
lowerneck -6.81249 -11.0639 -22.219
upperneck 25.9091 -13.1557 4.88541
head 11.5242 -7.67812 3.60832
rclavicle -3.08116e-015 -1.27222e-014
rhumerus 40.1318 -0.872268 -70.4847
rradius 43.8648
rwrist -29.6472
rhand -19.7459 -59.2661
rfingers 7.12502
rthumb 6.58508 -449.144
lclavicle -3.08116e-015 -1.27222e-014
lhumerus 5.29211 -61.6559 96.9856
lradius 107.212
lwrist 77.6788
lhand -36.6652 -37.9503
lfingers 7.12502
lthumb -9.75164 -8.19608
rfemur 13.6866 -2.01181 19.6736
rtibia -3.97569e-015
rfoot -15.0231 -7.94697
rtoes 7.22097
lfemur 23.0919 -4.98571 -13.3824
ltibia -19.1932
lfoot -1.47595 19.0654
ltoes -11.9805
435
root -1.12164 18.0679 5.11955 -6.40265 -3.82704 -3.89778
lowerback 6.75286 -0.779732 1.32276
upperback 4.10297 -0.98399 -3.71035
thorax 0.364438 -0.433388 -4.51828
lowerneck -6.63991 -11.046 -22.5885
upperneck 26.5245 -13.0773 4.7184
head 11.7472 -7.72326 3.61427
rclavicle -1.11319e-014 -2.70347e-014
rhumerus 40.3756 -1.16442 -70.3677
rradius 43.7909
rwrist -29.4218
rhand -19.9139 -60.6636
rfingers 7.12502
rthumb 6.42295 -269.454
lclavicle -1.11319e-014 -2.70347e-014
lhumerus 8.67718 -60.7517 94.679
lradius 105.133
lwrist 74.139
lhand -35.9415 -38.8243
lfingers 7.12502
lthumb -9.05337 -9.0386
rfemur 13.8289 -2.22075 19.73
rtibia 2.38542e-014
rfoot -15.0109 -7.95006
rtoes 7.1925
lfemur 23.2174 -5.02864 -13.2855
ltibia -19.3323
lfoot -1.22054 18.9457
ltoes -12.2429
